<svg id="visual" viewBox="0 0 1920 600" width="1920" height="600" xmlns="http://www.w3.org/2000/svg" xmlns:xlink="http://www.w3.org/1999/xlink" version="1.1"><rect x="0" y="0" width="1920" height="600" fill="#252525"></rect><path d="M0 58L80 54.8C160 51.7 320 45.3 480 64.5C640 83.7 800 128.3 960 138.2C1120 148 1280 123 1440 106.5C1600 90 1760 82 1840 78L1920 74L1920 601L1840 601C1760 601 1600 601 1440 601C1280 601 1120 601 960 601C800 601 640 601 480 601C320 601 160 601 80 601L0 601Z" fill="#fa7268"></path><path d="M0 293L80 284.7C160 276.3 320 259.7 480 253.3C640 247 800 251 960 237.3C1120 223.7 1280 192.3 1440 186.2C1600 180 1760 199 1840 208.5L1920 218L1920 601L1840 601C1760 601 1600 601 1440 601C1280 601 1120 601 960 601C800 601 640 601 480 601C320 601 160 601 80 601L0 601Z" fill="#eb5967"></path><path d="M0 297L80 293.3C160 289.7 320 282.3 480 295.7C640 309 800 343 960 356.3C1120 369.7 1280 362.3 1440 346.2C1600 330 1760 305 1840 292.5L1920 280L1920 601L1840 601C1760 601 1600 601 1440 601C1280 601 1120 601 960 601C800 601 640 601 480 601C320 601 160 601 80 601L0 601Z" fill="#da3f67"></path><path d="M0 398L80 423C160 448 320 498 480 504.7C640 511.3 800 474.7 960 476.7C1120 478.7 1280 519.3 1440 525.7C1600 532 1760 504 1840 490L1920 476L1920 601L1840 601C1760 601 1600 601 1440 601C1280 601 1120 601 960 601C800 601 640 601 480 601C320 601 160 601 80 601L0 601Z" fill="#c62368"></path></svg>